<svg width="18" height="14" viewBox="0 0 18 14" fill="none" xmlns="http://www.w3.org/2000/svg">
<path d="M17.3635 5.93817C17.5509 6.12569 17.6563 6.38 17.6563 6.64516C17.6563 6.91033 17.5509 7.16464 17.3635 7.35216L11.7065 13.0092C11.6142 13.1047 11.5039 13.1809 11.3819 13.2333C11.2599 13.2857 11.1286 13.3133 10.9959 13.3144C10.8631 13.3156 10.7314 13.2903 10.6085 13.24C10.4856 13.1897 10.374 13.1155 10.2801 13.0216C10.1862 12.9277 10.1119 12.816 10.0616 12.6931C10.0114 12.5702 9.98606 12.4385 9.98721 12.3058C9.98837 12.173 10.016 12.0418 10.0684 11.9198C10.1208 11.7978 10.197 11.6874 10.2925 11.5952L14.2425 7.64516L0.999464 7.64516C0.734247 7.64516 0.479893 7.53981 0.292357 7.35227C0.104821 7.16473 -0.000535685 6.91038 -0.000535673 6.64516C-0.000535662 6.37995 0.104821 6.12559 0.292357 5.93806C0.479893 5.75052 0.734248 5.64516 0.999464 5.64516L14.2425 5.64516L10.2925 1.69516C10.1103 1.50656 10.0095 1.25396 10.0118 0.991764C10.0141 0.729567 10.1192 0.478754 10.3046 0.293346C10.4901 0.107938 10.7409 0.00276821 11.0031 0.000489898C11.2653 -0.00178842 11.5179 0.0990054 11.7065 0.281164L17.3635 5.93817Z" fill="white"/>
</svg>
