<svg width="27" height="27" viewBox="0 0 27 27" fill="none" xmlns="http://www.w3.org/2000/svg">
<path fill-rule="evenodd" clip-rule="evenodd" d="M13.1257 26.25C15.4968 26.2502 17.8236 25.6081 19.859 24.3919C21.8944 23.1757 23.5624 21.4309 24.6856 19.3428C25.8089 17.2547 26.3455 14.9012 26.2385 12.5326C26.1315 10.1639 25.3848 7.86853 24.0778 5.89021L13.6434 17.484C13.156 18.0256 12.4836 18.3652 11.7584 18.4359C11.0331 18.5066 10.3077 18.3033 9.72489 17.866L4.95905 14.2917C4.64963 14.0596 4.44507 13.7141 4.39038 13.3312C4.33568 12.9484 4.43532 12.5594 4.66739 12.25C4.89945 11.9406 5.24493 11.736 5.62781 11.6813C6.0107 11.6266 6.39963 11.7263 6.70905 11.9583L11.4749 15.5327L22.1878 3.63125C20.6358 2.14974 18.7444 1.07129 16.679 0.490324C14.6136 -0.0906448 12.4372 -0.156415 10.3405 0.298772C8.24377 0.75396 6.29062 1.71622 4.65203 3.10131C3.01345 4.4864 1.7394 6.25207 0.941457 8.24373C0.14351 10.2354 -0.15401 12.3923 0.0749481 14.5256C0.303906 16.6589 1.05236 18.7036 2.25478 20.4805C3.45719 22.2575 5.07691 23.7126 6.9721 24.7184C8.86729 25.7242 10.9802 26.2501 13.1257 26.25Z" fill="#A59466"/>
</svg>
