<svg width="18" height="18" viewBox="0 0 18 18" fill="none" xmlns="http://www.w3.org/2000/svg">
<path d="M9.8995 9.89949L9.89949 16.8291C9.89949 17.0884 9.79932 17.3182 9.59898 17.5186C9.39863 17.7189 9.16882 17.8191 8.90954 17.8191C8.65027 17.8191 8.42046 17.7189 8.22012 17.5186C8.01977 17.3182 7.9196 17.0884 7.9196 16.8291L7.9196 9.89949H0.98995C0.730677 9.89949 0.500868 9.79932 0.300521 9.59897C0.100174 9.39863 0 9.16882 0 8.90954C0 8.65027 0.100174 8.42046 0.300521 8.22012C0.500868 8.01977 0.730677 7.9196 0.98995 7.9196L7.9196 7.9196L7.9196 0.989949C7.9196 0.730677 8.01977 0.500867 8.22012 0.30052C8.42046 0.100173 8.65027 4.21468e-08 8.90954 0C9.16882 -4.21468e-08 9.39863 0.100173 9.59898 0.300519C9.79932 0.500866 9.89949 0.730677 9.89949 0.98995L9.8995 7.9196H16.8291C17.0884 7.9196 17.3182 8.01977 17.5186 8.22012C17.7189 8.42046 17.8191 8.65027 17.8191 8.90954C17.8191 9.16882 17.7189 9.39863 17.5186 9.59897C17.3182 9.79932 17.0884 9.89949 16.8291 9.89949H9.8995Z" fill="#191919"/>
</svg>
