<svg width="40" height="40" viewBox="0 0 40 40" fill="none" xmlns="http://www.w3.org/2000/svg">
<path d="M1 20C1 9.50659 9.50659 1 20 1C30.4934 1 39 9.50659 39 20C39 30.4934 30.4934 39 20 39C9.50659 39 1 30.4934 1 20Z" stroke="#A59466" stroke-width="2"/>
<mask id="mask0_87_6719" style="mask-type:luminance" maskUnits="userSpaceOnUse" x="8" y="8" width="24" height="24">
<path d="M8 8H32V32H8V8Z" fill="white"/>
</mask>
<g mask="url(#mask0_87_6719)">
<path d="M28.7077 19.2677C28.8952 19.4553 29.0005 19.7096 29.0005 19.9747C29.0005 20.2399 28.8952 20.4942 28.7077 20.6817L23.0507 26.3387C22.9585 26.4343 22.8481 26.5104 22.7261 26.5628C22.6041 26.6153 22.4729 26.6428 22.3401 26.644C22.2073 26.6451 22.0757 26.6198 21.9528 26.5696C21.8299 26.5193 21.7183 26.445 21.6244 26.3511C21.5305 26.2572 21.4562 26.1456 21.4059 26.0227C21.3556 25.8998 21.3303 25.7681 21.3315 25.6353C21.3326 25.5026 21.3603 25.3713 21.4127 25.2493C21.4651 25.1273 21.5413 25.017 21.6368 24.9247L25.5868 20.9747H12.3438C12.0786 20.9747 11.8242 20.8694 11.6367 20.6818C11.4492 20.4943 11.3438 20.24 11.3438 19.9747C11.3438 19.7095 11.4492 19.4552 11.6367 19.2676C11.8242 19.0801 12.0786 18.9747 12.3438 18.9747H25.5868L21.6368 15.0247C21.4547 14.8361 21.3538 14.5835 21.356 14.3213C21.3583 14.0591 21.4635 13.8083 21.6489 13.6229C21.8343 13.4375 22.0852 13.3323 22.3474 13.3301C22.6096 13.3278 22.8621 13.4286 23.0507 13.6107L28.7077 19.2677Z" fill="#A59466"/>
</g>
</svg>
