<svg width="23" height="23" viewBox="0 0 23 23" fill="none" xmlns="http://www.w3.org/2000/svg">
<path fill-rule="evenodd" clip-rule="evenodd" d="M0 10C0 5.28625 -1.49012e-07 2.92875 1.465 1.465C2.93 0.00124991 5.28625 0 10 0H12.5C17.2137 0 19.5712 -1.49012e-07 21.035 1.465C22.4987 2.93 22.5 5.28625 22.5 10V12.5C22.5 17.2137 22.5 19.5712 21.035 21.035C19.57 22.4987 17.2137 22.5 12.5 22.5H10C5.28625 22.5 2.92875 22.5 1.465 21.035C0.00124991 19.57 0 17.2137 0 12.5V10ZM18.75 5.625C18.75 6.12228 18.5525 6.59919 18.2008 6.95083C17.8492 7.30246 17.3723 7.5 16.875 7.5C16.3777 7.5 15.9008 7.30246 15.5492 6.95083C15.1975 6.59919 15 6.12228 15 5.625C15 5.12772 15.1975 4.65081 15.5492 4.29917C15.9008 3.94754 16.3777 3.75 16.875 3.75C17.3723 3.75 17.8492 3.94754 18.2008 4.29917C18.5525 4.65081 18.75 5.12772 18.75 5.625ZM13.75 12.5C13.75 13.163 13.4866 13.7989 13.0178 14.2678C12.5489 14.7366 11.913 15 11.25 15C10.587 15 9.95107 14.7366 9.48223 14.2678C9.01339 13.7989 8.75 13.163 8.75 12.5C8.75 11.837 9.01339 11.2011 9.48223 10.7322C9.95107 10.2634 10.587 10 11.25 10C11.913 10 12.5489 10.2634 13.0178 10.7322C13.4866 11.2011 13.75 11.837 13.75 12.5ZM16.25 12.5C16.25 13.8261 15.7232 15.0979 14.7855 16.0355C13.8479 16.9732 12.5761 17.5 11.25 17.5C9.92392 17.5 8.65215 16.9732 7.71447 16.0355C6.77678 15.0979 6.25 13.8261 6.25 12.5C6.25 11.1739 6.77678 9.90215 7.71447 8.96447C8.65215 8.02678 9.92392 7.5 11.25 7.5C12.5761 7.5 13.8479 8.02678 14.7855 8.96447C15.7232 9.90215 16.25 11.1739 16.25 12.5Z" fill="white"/>
</svg>
