<svg width="174" height="44" viewBox="0 0 174 44" fill="none" xmlns="http://www.w3.org/2000/svg">
<mask id="mask0_0_1776" style="mask-type:luminance" maskUnits="userSpaceOnUse" x="0" y="0" width="174" height="44">
<path d="M173.966 0H0V44H173.966V0Z" fill="white"/>
</mask>
<g mask="url(#mask0_0_1776)">
<path fill-rule="evenodd" clip-rule="evenodd" d="M57.4054 39.3038V35.9129C57.4054 35.3305 57.2761 34.847 57.0154 34.4602C56.7589 34.0692 56.407 33.779 55.9555 33.5857C55.5103 33.3922 54.9973 33.2976 54.4208 33.2976C53.9375 33.2976 53.5008 33.3607 53.1129 33.489C52.725 33.6151 52.39 33.7896 52.1102 34.0103C51.8304 34.2311 51.6185 34.4833 51.4701 34.765C51.3238 35.0467 51.2497 35.339 51.2497 35.6396H52.956C52.956 35.4377 53.0132 35.2569 53.1256 35.0971C53.2401 34.9374 53.3991 34.8112 53.6026 34.7167C53.806 34.6221 54.0477 34.5758 54.3275 34.5758C54.6306 34.5758 54.8829 34.6305 55.08 34.7377C55.2835 34.8449 55.4361 34.9984 55.5358 35.196C55.6354 35.3936 55.6841 35.629 55.6841 35.9002V36.4279H54.5904C54.0307 36.4279 53.5347 36.4847 53.0981 36.5961C52.6614 36.7033 52.2925 36.8631 51.9894 37.0754C51.6905 37.2877 51.4637 37.5505 51.3069 37.8658C51.1543 38.177 51.0801 38.5322 51.0801 38.9379C51.0801 39.3711 51.1924 39.7579 51.415 40.1005C51.6375 40.439 51.9449 40.7081 52.3391 40.912C52.7334 41.1096 53.1807 41.2084 53.6831 41.2084C54.0817 41.2084 54.4314 41.1453 54.7345 41.0171C55.0419 40.891 55.3047 40.7291 55.5231 40.5315C55.6036 40.46 55.6757 40.3844 55.7435 40.3107C55.7445 40.3202 55.7457 40.3302 55.7467 40.3402L55.747 40.343C55.7479 40.352 55.7489 40.3611 55.7499 40.3696C55.7965 40.6513 55.8622 40.8847 55.9428 41.0676H57.698V40.954C57.6026 40.7522 57.5305 40.5146 57.4774 40.2414C57.4308 39.9639 57.4054 39.6506 57.4054 39.3038ZM55.6863 38.9064C55.6503 38.9758 55.61 39.0473 55.5591 39.1188C55.4065 39.3247 55.1987 39.5014 54.9337 39.6464C54.6731 39.7873 54.3678 39.8588 54.0159 39.8588C53.7552 39.8588 53.5326 39.8125 53.3481 39.7179C53.168 39.6233 53.0302 39.4951 52.937 39.3311C52.8416 39.1629 52.7949 38.9758 52.7949 38.774C52.7949 38.5722 52.8352 38.3914 52.9157 38.2316C52.9963 38.0719 53.1171 37.9352 53.2782 37.8238C53.4393 37.7102 53.6407 37.6262 53.8824 37.5694C54.124 37.5085 54.4038 37.4769 54.7218 37.4769H55.6884V38.9064H55.6863Z" fill="white"/>
<path d="M169.143 36.2238C169.2 35.9274 169.291 35.6625 169.42 35.427C169.548 35.1874 169.725 35.0003 169.952 34.8636C170.179 34.7228 170.467 34.6513 170.813 34.6513C171.126 34.6513 171.393 34.7186 171.616 34.8552C171.843 34.9918 172.019 35.1747 172.142 35.406C172.269 35.631 172.341 35.8853 172.356 36.167H173.969C173.961 35.5994 173.82 35.1012 173.549 34.6723C173.285 34.2393 172.92 33.905 172.456 33.6653C171.991 33.4215 171.451 33.2996 170.836 33.2996C170.253 33.2996 169.744 33.4005 169.308 33.6023C168.871 33.7999 168.509 34.0753 168.22 34.4264C167.932 34.7795 167.714 35.1874 167.568 35.6519C167.425 36.1124 167.354 36.6063 167.354 37.1319V37.3779C167.354 37.9035 167.425 38.3975 167.568 38.8579C167.714 39.3183 167.932 39.724 168.22 40.0772C168.509 40.4304 168.871 40.7079 169.308 40.9097C169.744 41.1073 170.256 41.2061 170.842 41.2061C171.43 41.2061 171.93 41.0883 172.398 40.853C172.867 40.6133 173.244 40.2916 173.528 39.888C173.813 39.4844 173.958 39.0345 173.969 38.5425H172.356C172.341 38.8011 172.262 39.0282 172.121 39.2258C171.983 39.4234 171.801 39.5789 171.574 39.6904C171.352 39.7976 171.099 39.8523 170.821 39.8523C170.471 39.8523 170.181 39.785 169.954 39.6484C169.728 39.5075 169.548 39.3225 169.414 39.0912C169.287 38.8558 169.196 38.5909 169.145 38.2945C169.094 37.9981 169.067 37.6933 169.067 37.3779V37.1319C169.067 36.8166 169.092 36.5139 169.145 36.2217L169.143 36.2238Z" fill="white"/>
<path fill-rule="evenodd" clip-rule="evenodd" d="M74.8898 33.573C75.3031 33.7559 75.6444 34.0145 75.9136 34.3488H75.9157C76.1891 34.6788 76.3926 35.0698 76.5262 35.5261C76.664 35.9822 76.7318 36.4847 76.7318 37.0355V37.7607H71.6868C71.7037 38.0004 71.7462 38.2295 71.8139 38.444C71.9073 38.7257 72.0471 38.9716 72.2252 39.1839C72.4033 39.3962 72.6216 39.5624 72.8781 39.6842C73.1324 39.802 73.425 39.8608 73.7514 39.8608C74.1647 39.8608 74.5315 39.7788 74.8537 39.6149C75.1759 39.4509 75.4557 39.2176 75.6931 38.917L76.5962 39.7831C76.4308 40.0227 76.2146 40.254 75.9496 40.4747C75.6846 40.6892 75.3603 40.8657 74.9766 41.0023C74.5972 41.1391 74.1563 41.2063 73.6539 41.2063C73.0837 41.2063 72.5708 41.1138 72.1107 40.9309C71.655 40.7438 71.2671 40.4831 70.9449 40.1489C70.629 39.8146 70.3831 39.4236 70.2135 38.9716C70.0419 38.5196 69.957 38.034 69.957 37.5127V37.231C69.957 36.6339 70.0439 36.0937 70.2199 35.6101C70.3938 35.1266 70.6375 34.7125 70.9512 34.3698C71.2628 34.0209 71.6338 33.7559 72.0599 33.573C72.4859 33.3902 72.9481 33.2976 73.4462 33.2976C73.9973 33.2976 74.4785 33.3902 74.8898 33.573ZM71.7249 36.5414H75.0402V36.4048C75.0317 36.0999 74.9703 35.812 74.8558 35.545C74.7478 35.278 74.5782 35.0614 74.3513 34.8974C74.1245 34.7335 73.8213 34.6515 73.442 34.6515C73.1579 34.6515 72.9035 34.7125 72.681 34.8344C72.4626 34.9521 72.2803 35.1245 72.134 35.3495C71.9878 35.5744 71.8733 35.8476 71.7928 36.1672C71.7631 36.287 71.7419 36.411 71.7249 36.5414Z" fill="white"/>
<path d="M62.2949 33.4404V41.0674H64.0076V34.7943H67.022V41.0674H68.7411V33.4404H62.2949Z" fill="white"/>
<path d="M21.289 33.4404V38.5846L24.3096 33.4404H26.0245V41.0674H24.3096V35.9147L21.289 41.0674H19.5762V33.4404H21.289Z" fill="white"/>
<path d="M50.4609 33.4404H48.3199L46.2447 36.4929H45.4413V33.4404H43.7285V41.0674H45.4413V38.0297H46.3401L48.4555 41.0674H50.7089L47.7158 37.0773L50.4609 33.4404Z" fill="white"/>
<path d="M12.4739 33.4404H17.9895V41.0674H16.2767V34.7943H14.0913L13.9599 37.2119C13.9323 37.7711 13.875 38.265 13.7903 38.6918C13.7097 39.1144 13.6016 39.4802 13.4639 39.785C13.3261 40.0856 13.1586 40.3316 12.9594 40.5187C12.7601 40.7079 12.5269 40.8466 12.2619 40.935C11.997 41.0254 11.698 41.0694 11.3674 41.0694H8.58839L6.47287 38.0317H5.57409V41.0694H3.86133V33.4425H5.57409V36.495H6.37748L8.45273 33.4425H10.5916L7.8486 37.0795L10.8332 41.059L10.8268 39.6715L11.0961 39.6504C11.272 39.6357 11.4246 39.5916 11.5519 39.516C11.679 39.436 11.7892 39.3225 11.8783 39.1774C11.9715 39.0324 12.0479 38.8453 12.105 38.614C12.1666 38.3828 12.2132 38.1116 12.2471 37.7963C12.2853 37.481 12.3128 37.1151 12.3319 36.6968L12.4739 33.4404Z" fill="white"/>
<path d="M37.3397 38.5846V33.4404H35.627V41.0674H37.3397L40.3604 35.9147V41.0674H42.0732V33.4404H40.3604L37.3397 38.5846Z" fill="white"/>
<path d="M29.3144 36.6254H32.3202V33.4404H34.0351V41.0674H32.3202V37.9644H29.3144V41.0674H27.6016V33.4404H29.3144V36.6254Z" fill="white"/>
<path fill-rule="evenodd" clip-rule="evenodd" d="M83.7397 34.3698C83.4832 34.0271 83.1695 33.7643 82.7943 33.5793C82.4191 33.3922 81.9909 33.2976 81.5076 33.2976C81.0243 33.2976 80.6194 33.386 80.2633 33.5646C79.941 33.7265 79.6677 33.9536 79.4345 34.2373L79.3603 33.4364H77.7832V43.996H79.4959V40.3486C79.7143 40.5966 79.9708 40.7963 80.2633 40.9436C80.6236 41.118 81.0434 41.2042 81.5203 41.2042C81.9972 41.2042 82.4296 41.1075 82.8006 40.9162C83.1716 40.7248 83.4811 40.4537 83.7312 40.1047C83.9877 39.7515 84.1785 39.3416 84.3078 38.8707C84.4413 38.3956 84.5071 37.8806 84.5071 37.3276V37.1805C84.5071 36.5982 84.4435 36.0684 84.3142 35.5954C84.187 35.1161 83.9941 34.7083 83.7376 34.3698H83.7397ZM82.7943 37.3298C82.7943 37.6724 82.7603 37.9962 82.6946 38.3031C82.6289 38.6079 82.525 38.8791 82.3809 39.1145C82.2432 39.3458 82.0651 39.5266 81.8489 39.6569C81.6305 39.7894 81.3677 39.8546 81.0603 39.8546C80.6618 39.8546 80.3353 39.7726 80.0788 39.6086C79.8287 39.4404 79.6337 39.2134 79.4959 38.9317V35.5807C79.5595 35.4566 79.6316 35.3431 79.7164 35.238C79.8626 35.0593 80.0449 34.9205 80.2633 34.8218C80.4816 34.7188 80.7423 34.6662 81.0454 34.6662C81.3486 34.6662 81.6157 34.7314 81.834 34.8638C82.0566 34.99 82.2389 35.1686 82.3809 35.3999C82.523 35.6312 82.6268 35.8982 82.6946 36.203C82.7603 36.5036 82.7943 36.8294 82.7943 37.1826V37.3298Z" fill="white"/>
<path fill-rule="evenodd" clip-rule="evenodd" d="M109.45 33.4404H114.783V39.7135H115.834V43.3357H114.122V41.0652H109.196V43.3357H107.455L107.462 39.7135H108.094C108.296 39.4991 108.472 39.2825 108.619 39.0661C108.77 38.8453 108.899 38.6036 109.003 38.3408C109.107 38.0738 109.187 37.7605 109.244 37.4032C109.306 37.0458 109.346 36.6211 109.365 36.1271L109.45 33.4404ZM110.08 39.7135H113.075V34.8783H111.116L111.075 36.125C111.053 36.9049 110.964 37.5756 110.807 38.1348C110.652 38.694 110.446 39.167 110.196 39.5516C110.169 39.5921 110.14 39.6303 110.113 39.668L110.108 39.6741L110.093 39.6959L110.08 39.7135Z" fill="white"/>
<path fill-rule="evenodd" clip-rule="evenodd" d="M149.692 34.4119C149.386 34.0587 149.008 33.7875 148.562 33.5941C148.122 33.3964 147.62 33.2976 147.056 33.2976C146.491 33.2976 145.994 33.3964 145.549 33.5941C145.108 33.7875 144.734 34.0587 144.425 34.4119C144.121 34.7587 143.888 35.1708 143.727 35.6459C143.567 36.1168 143.486 36.6255 143.486 37.1763V37.3381C143.486 37.889 143.567 38.3977 143.727 38.8686C143.888 39.3395 144.124 39.7495 144.432 40.1027C144.738 40.4495 145.114 40.7228 145.555 40.9203C146 41.1138 146.504 41.2084 147.069 41.2084C147.632 41.2084 148.128 41.1117 148.567 40.9203C149.008 40.7228 149.381 40.4495 149.691 40.1027C149.997 39.7495 150.233 39.3395 150.394 38.8686C150.556 38.3977 150.636 37.889 150.636 37.3381V37.1763C150.636 36.6255 150.556 36.1168 150.394 35.6459C150.233 35.1708 149.997 34.7608 149.691 34.4119H149.692ZM148.926 37.3381C148.926 37.6808 148.887 38.0046 148.811 38.3115C148.738 38.6164 148.628 38.8854 148.476 39.1145C148.323 39.3458 148.13 39.5266 147.893 39.6569C147.66 39.7894 147.387 39.8546 147.069 39.8546C146.751 39.8546 146.46 39.7894 146.223 39.6569C145.985 39.5245 145.792 39.3437 145.64 39.1145C145.487 38.8854 145.377 38.6164 145.304 38.3115C145.232 38.0066 145.199 37.6808 145.199 37.3381V37.1763C145.199 36.8378 145.235 36.5183 145.304 36.2177C145.377 35.9129 145.487 35.6416 145.64 35.4062C145.792 35.1708 145.983 34.9878 146.216 34.8554C146.453 34.7188 146.733 34.6515 147.056 34.6515C147.378 34.6515 147.655 34.7188 147.887 34.8554C148.124 34.9878 148.317 35.1708 148.47 35.4062C148.627 35.6416 148.738 35.9107 148.811 36.2177C148.887 36.5183 148.926 36.8378 148.926 37.1763V37.3381Z" fill="white"/>
<path d="M121.447 33.4404H123.586L120.843 37.0773L123.834 41.0674H121.583L119.465 38.0297H118.569V41.0674H116.855V33.4404H118.569V36.4929H119.372L121.447 33.4404Z" fill="white"/>
<path fill-rule="evenodd" clip-rule="evenodd" d="M165.587 34.4119C165.279 34.0587 164.902 33.7875 164.457 33.5941C164.017 33.3964 163.514 33.2976 162.95 33.2976C162.386 33.2976 161.888 33.3964 161.443 33.5941C161.002 33.7875 160.629 34.0587 160.319 34.4119C160.016 34.7587 159.783 35.1708 159.622 35.6459C159.461 36.1168 159.381 36.6255 159.381 37.1763V37.3381C159.381 37.889 159.461 38.3977 159.622 38.8686C159.783 39.3395 160.019 39.7495 160.326 40.1027C160.633 40.4495 161.008 40.7228 161.449 40.9203C161.895 41.1138 162.399 41.2084 162.963 41.2084C163.526 41.2084 164.023 41.1117 164.461 40.9203C164.902 40.7228 165.276 40.4495 165.585 40.1027C165.892 39.7495 166.128 39.3395 166.289 38.8686C166.45 38.3977 166.531 37.889 166.531 37.3381V37.1763C166.531 36.6255 166.45 36.1168 166.289 35.6459C166.128 35.1708 165.892 34.7608 165.585 34.4119H165.587ZM164.82 37.3381C164.82 37.6808 164.782 38.0046 164.706 38.3115C164.633 38.6164 164.523 38.8854 164.37 39.1145C164.218 39.3458 164.025 39.5266 163.787 39.6569C163.554 39.7894 163.281 39.8546 162.963 39.8546C162.645 39.8546 162.355 39.7894 162.117 39.6569C161.88 39.5245 161.687 39.3437 161.534 39.1145C161.382 38.8833 161.272 38.6164 161.199 38.3115C161.127 38.0066 161.093 37.6808 161.093 37.3381V37.1763C161.093 36.8378 161.13 36.5183 161.199 36.2177C161.272 35.9129 161.382 35.6416 161.534 35.4062C161.687 35.1708 161.877 34.9878 162.11 34.8554C162.348 34.7188 162.628 34.6515 162.95 34.6515C163.272 34.6515 163.55 34.7188 163.781 34.8554C164.019 34.9878 164.212 35.1708 164.364 35.4062C164.521 35.6416 164.633 35.9107 164.706 36.2177C164.782 36.5183 164.82 36.8378 164.82 37.1763V37.3381Z" fill="white"/>
<path fill-rule="evenodd" clip-rule="evenodd" d="M106.556 35.9129V39.3038C106.556 39.6506 106.581 39.9639 106.628 40.2414C106.681 40.5146 106.754 40.7522 106.849 40.954V41.0676H105.093C105.013 40.8847 104.947 40.6513 104.901 40.3696C104.898 40.3507 104.897 40.3296 104.894 40.3107C104.827 40.3844 104.755 40.46 104.674 40.5315C104.456 40.7291 104.192 40.891 103.886 41.0171C103.582 41.1453 103.232 41.2084 102.834 41.2084C102.332 41.2084 101.885 41.1096 101.49 40.912C101.096 40.7081 100.789 40.439 100.566 40.1005C100.343 39.7579 100.23 39.3711 100.23 38.9379C100.23 38.5322 100.305 38.177 100.458 37.8658C100.614 37.5505 100.841 37.2877 101.14 37.0754C101.444 36.8631 101.812 36.7033 102.249 36.5961C102.685 36.4847 103.182 36.4279 103.741 36.4279H104.835V35.9002C104.835 35.629 104.786 35.3936 104.686 35.196C104.587 34.9984 104.434 34.8449 104.231 34.7377C104.034 34.6305 103.782 34.5758 103.478 34.5758C103.198 34.5758 102.957 34.6221 102.753 34.7167C102.55 34.8112 102.389 34.9374 102.276 35.0971C102.164 35.2569 102.107 35.4377 102.107 35.6396H100.4C100.4 35.339 100.475 35.0467 100.621 34.765C100.769 34.4833 100.981 34.2311 101.261 34.0103C101.541 33.7896 101.876 33.6151 102.263 33.489C102.652 33.3607 103.088 33.2976 103.572 33.2976C104.148 33.2976 104.661 33.3922 105.106 33.5857C105.558 33.779 105.91 34.0692 106.166 34.4602C106.427 34.847 106.556 35.3305 106.556 35.9129ZM104.71 39.1188C104.761 39.0473 104.801 38.9758 104.837 38.9064H104.84V37.4769H103.873C103.554 37.4769 103.275 37.5085 103.033 37.5694C102.792 37.6262 102.59 37.7102 102.429 37.8238C102.268 37.9352 102.147 38.0719 102.067 38.2316C101.986 38.3914 101.945 38.5722 101.945 38.774C101.945 38.9758 101.992 39.1629 102.087 39.3311C102.181 39.4951 102.319 39.6233 102.499 39.7179C102.684 39.8125 102.906 39.8588 103.167 39.8588C103.519 39.8588 103.824 39.7873 104.085 39.6464C104.35 39.5014 104.557 39.3247 104.71 39.1188Z" fill="white"/>
<path d="M126.244 38.5846V33.4404H124.531V41.0674H126.244L129.265 35.9147V41.0674H130.977V33.4404H129.265L126.244 38.5846Z" fill="white"/>
<path fill-rule="evenodd" clip-rule="evenodd" d="M90.3001 33.573C90.7134 33.7559 91.0549 34.0145 91.3235 34.3488H91.3261C91.599 34.6788 91.8027 35.0698 91.9361 35.5261C92.0739 35.9822 92.1424 36.4847 92.1424 37.0355V37.7607H87.0965C87.1139 38.0004 87.1563 38.2295 87.2239 38.444C87.3175 38.7257 87.4553 38.9716 87.6355 39.1839C87.8132 39.3962 88.0315 39.5624 88.288 39.6842C88.5428 39.802 88.8348 39.8608 89.1615 39.8608C89.5748 39.8608 89.9414 39.7788 90.2637 39.6149C90.5861 39.4509 90.8659 39.2176 91.1034 38.917L92.0063 39.7831C91.8408 40.0227 91.625 40.254 91.3599 40.4747C91.0947 40.6892 90.7706 40.8657 90.3868 41.0023C90.0072 41.1391 89.5661 41.2063 89.0644 41.2063C88.4942 41.2063 87.9813 41.1138 87.5211 40.9309C87.0653 40.7438 86.6771 40.4831 86.355 40.1489C86.0392 39.8146 85.7933 39.4236 85.6237 38.9716C85.452 38.5196 85.3672 38.034 85.3672 37.5127V37.231C85.3672 36.6339 85.4541 36.0937 85.6301 35.6101C85.8039 35.1266 86.0477 34.7125 86.3614 34.3698C86.6728 34.0209 87.0437 33.7559 87.47 33.573C87.8963 33.3902 88.3582 33.2976 88.8565 33.2976C89.4076 33.2976 89.8885 33.3902 90.3001 33.573ZM87.1355 36.5414H90.45V36.4048C90.4422 36.0999 90.3807 35.812 90.2663 35.545C90.158 35.278 89.9882 35.0614 89.7611 34.8974C89.535 34.7335 89.2317 34.6515 88.8521 34.6515C88.5679 34.6515 88.314 34.7125 88.0913 34.8344C87.8729 34.9521 87.6901 35.1245 87.5445 35.3495C87.3981 35.5744 87.2837 35.8476 87.2031 36.1672C87.1737 36.287 87.152 36.411 87.1355 36.5414Z" fill="white"/>
<path fill-rule="evenodd" clip-rule="evenodd" d="M141.662 37.3801C141.467 37.275 141.238 37.1992 140.982 37.1446C141.26 37.0416 141.497 36.9155 141.69 36.7599C141.889 36.6001 142.037 36.4172 142.137 36.2091C142.241 36.0031 142.294 35.7823 142.294 35.5468C142.294 35.1895 142.217 34.8805 142.067 34.6156C141.921 34.3486 141.707 34.1278 141.427 33.9534C141.147 33.7789 140.808 33.6506 140.411 33.5666C140.017 33.4825 139.574 33.4404 139.082 33.4404H135.969V41.0674H139.572C140.055 41.0674 140.486 41.0232 140.866 40.9328C141.244 40.8383 141.565 40.7015 141.826 40.525C142.091 40.3421 142.289 40.113 142.424 39.8417C142.561 39.5685 142.629 39.2552 142.629 38.8979C142.629 38.5867 142.548 38.3008 142.387 38.038C142.226 37.7753 141.984 37.5567 141.662 37.3821V37.3801ZM137.681 34.7796H139.082C139.328 34.7796 139.545 34.7985 139.729 34.8363C139.918 34.87 140.074 34.9246 140.197 35.0045C140.325 35.0802 140.42 35.1789 140.482 35.3009C140.543 35.4186 140.574 35.5574 140.574 35.7172C140.574 35.9105 140.522 36.0746 140.418 36.2112C140.314 36.3437 140.153 36.4424 139.935 36.5076C139.721 36.5728 139.45 36.6065 139.116 36.6065H137.681V34.7796ZM140.766 39.291C140.671 39.4318 140.524 39.5391 140.325 39.6147C140.126 39.6904 139.875 39.7282 139.572 39.7282H137.681V37.8047H139.572C139.885 37.8047 140.139 37.8446 140.333 37.9245C140.533 38.0002 140.678 38.1095 140.774 38.2567C140.869 38.4017 140.916 38.5762 140.916 38.778C140.916 38.9799 140.867 39.1459 140.768 39.2931L140.766 39.291Z" fill="white"/>
<path d="M94.928 35.427C94.7989 35.6625 94.7079 35.9274 94.6499 36.2238L94.6525 36.2217C94.5996 36.5139 94.5736 36.8166 94.5736 37.1319V37.3779C94.5736 37.6933 94.5996 37.9981 94.6525 38.2945C94.7036 38.5909 94.7946 38.8558 94.9219 39.0912C95.0554 39.3225 95.2356 39.5075 95.4618 39.6484C95.6888 39.785 95.9791 39.8523 96.3292 39.8523C96.6065 39.8523 96.8586 39.7976 97.0813 39.6904C97.3084 39.5789 97.4904 39.4234 97.6281 39.2258C97.7702 39.0282 97.8491 38.8011 97.8638 38.5425H99.4773C99.466 39.0345 99.3205 39.4844 99.0362 39.888C98.752 40.2916 98.3751 40.6133 97.9063 40.853C97.4375 41.0883 96.9375 41.2061 96.35 41.2061C95.7634 41.2061 95.2521 41.1073 94.8154 40.9097C94.3786 40.7079 94.0164 40.4304 93.7279 40.0772C93.4402 39.724 93.2218 39.3183 93.0754 38.8579C92.9332 38.3975 92.8613 37.9035 92.8613 37.3779V37.1319C92.8613 36.6063 92.9332 36.1124 93.0754 35.6519C93.2218 35.1874 93.4402 34.7795 93.7279 34.4264C94.0164 34.0753 94.3786 33.7999 94.8154 33.6023C95.2521 33.4005 95.7607 33.2996 96.3439 33.2996C96.9583 33.2996 97.499 33.4215 97.9635 33.6653C98.4279 33.905 98.7919 34.2393 99.057 34.6723C99.3283 35.1012 99.4686 35.5994 99.4773 36.167H97.8638C97.8491 35.8853 97.7772 35.631 97.6498 35.406C97.5267 35.1747 97.3508 34.9918 97.1238 34.8552C96.9011 34.7186 96.6342 34.6513 96.3205 34.6513C95.9748 34.6513 95.6871 34.7228 95.4601 34.8636C95.233 35.0003 95.0554 35.1874 94.928 35.427Z" fill="white"/>
<path d="M156.467 33.4405H152.665L152.523 36.6969C152.504 37.1152 152.476 37.4811 152.438 37.7964C152.404 38.1118 152.357 38.3829 152.296 38.6141C152.239 38.8454 152.162 39.0325 152.069 39.1776C151.98 39.3226 151.87 39.4361 151.743 39.5161C151.615 39.5917 151.463 39.6359 151.287 39.6506L151.018 39.6716L151.024 41.0675H151.556C151.887 41.0675 152.186 41.0233 152.451 40.9329C152.716 40.8447 152.949 40.7059 153.148 40.5167C153.348 40.3296 153.515 40.0836 153.653 39.783C153.79 39.4782 153.899 39.1124 153.979 38.6899C154.063 38.2631 154.121 37.769 154.148 37.2098L154.28 34.7922H156.465V41.0653H158.179V33.4385H156.465L156.467 33.4405Z" fill="white"/>
<path d="M69.9084 16.7234C69.5798 15.809 69.0159 15.0543 68.2337 14.4719C67.4155 13.8308 66.5952 13.3388 65.7896 13.0046H65.7854L65.7811 13.0003C64.9608 12.6282 63.8479 12.2309 62.4722 11.8209L55.9794 9.84696C54.8475 9.4959 53.9656 9.15739 53.3594 8.83788L53.3382 8.82525C52.6831 8.41954 52.3504 7.82251 52.3504 7.05309C52.3504 6.28366 52.787 5.33556 54.8665 5.33556H69.2449L70.0038 -0.00415039H52.4584C49.9381 -0.00415039 48.0558 0.561354 46.8665 1.67555C45.7177 2.78132 45.1348 4.57454 45.1348 7.00054C45.1348 9.15954 45.6371 10.8203 46.6249 11.9324C47.6275 13.0592 49.4272 14.0241 51.9773 14.7977L57.6307 16.5111C57.8384 16.5805 58.1988 16.6814 58.7096 16.8159C59.2375 16.921 59.6869 17.0451 60.0472 17.188C60.4415 17.2952 60.857 17.4571 61.2831 17.6674C61.7473 17.8607 62.1055 18.1214 62.3472 18.4388C62.5973 18.771 62.7244 19.1473 62.7244 19.5636C62.7244 20.4654 62.3429 21.5397 60.5221 21.5397H46.2561L45.4972 26.8793H63.7144C66.0546 26.8793 67.7737 26.3181 68.823 25.2144C69.9126 24.1002 70.4637 22.3764 70.4637 20.0828C70.4637 18.7794 70.2772 17.6484 69.9104 16.7192L69.9084 16.7234Z" fill="#A59466"/>
<path fill-rule="evenodd" clip-rule="evenodd" d="M165.777 0C168.336 0 170.351 0.769422 171.772 2.28935C173.23 3.81348 173.968 5.87157 173.968 8.40688V22.0084C173.968 25.2879 172.376 26.8835 169.099 26.8835H153.692C151.388 26.8835 149.71 26.2256 148.711 24.9368C147.717 23.5809 147.215 21.4429 147.215 18.5818C147.215 13.0297 149.334 10.3305 153.692 10.3305H166.511V8.82106C166.511 6.44128 165.199 5.18414 162.716 5.18414H149.182L149.938 0H165.777ZM166.511 19.7759V15.3064H157.529C156.272 15.3064 154.774 15.9245 154.774 18.6322C154.774 21.3399 156.245 21.9075 157.478 21.9075H164.378C165.13 21.9075 165.662 21.7414 166.004 21.3988C166.345 21.0582 166.511 20.5264 166.511 19.7759Z" fill="#A59466"/>
<path fill-rule="evenodd" clip-rule="evenodd" d="M91.3807 0H75.5422L74.7855 5.18414H88.3201C90.8027 5.18414 92.1147 6.44128 92.1147 8.82106V10.3305H79.2963C74.9381 10.3305 72.8184 13.0297 72.8184 18.5818C72.8184 21.4429 73.3207 23.5809 74.3149 24.9368C75.3133 26.2256 76.9921 26.8835 79.2963 26.8835H94.703C97.9803 26.8835 99.5721 25.2879 99.5721 22.0084V8.40688C99.5721 5.87157 98.8338 3.81348 97.3754 2.28935C95.9552 0.769422 93.9396 0 91.3807 0ZM92.1147 19.7759C92.1147 20.5264 91.9492 21.0582 91.6078 21.3988C91.2663 21.7414 90.7343 21.9075 89.9821 21.9075H83.0822C81.8485 21.9075 80.3774 21.3399 80.3774 18.6322C80.3774 15.9245 81.8761 15.3064 83.1331 15.3064H92.1147V19.7759Z" fill="#A59466"/>
<path d="M122.344 11.6759C122.344 9.49378 121.859 7.88343 120.9 6.89326H120.902C119.971 5.86106 118.416 5.3376 116.279 5.3376H112.778C112.02 5.3376 111.485 5.50368 111.141 5.84635C110.797 6.18901 110.63 6.72088 110.63 7.47138V26.8835H103.111V4.87511C103.111 1.5956 104.718 0 108.02 0H119.31C122.63 0 125.252 0.796751 127.103 2.36713C128.934 3.88915 129.863 6.32356 129.863 9.60095V26.8835H122.344V11.6759Z" fill="#A59466"/>
<path d="M41.6518 9.60095V26.8835H34.135V11.6759C34.135 9.49378 33.6497 7.88343 32.6915 6.89326C31.7609 5.86106 30.2072 5.3376 28.0683 5.3376H24.5665C23.8097 5.3376 23.2734 5.50368 22.93 5.84635C22.5866 6.18901 22.4191 6.72088 22.4191 7.47138V26.8835H14.9004V4.87511C14.9004 1.5956 16.5071 0 19.8097 0H31.0995C34.4191 0 37.0413 0.796751 38.8918 2.36713C40.7233 3.88915 41.6518 6.32356 41.6518 9.60095Z" fill="#A59466"/>
<path d="M7.07363 5.36704V6.96895L6.8553 7.04042C4.98779 7.65848 3.87068 9.8616 3.87068 11.6338V26.8856H11.4149V0H0.635927L0 5.36704H7.07363Z" fill="#A59466"/>
<path d="M139.744 6.96895V5.36704H132.668L133.304 0H144.085V26.8856H136.541V11.6338C136.541 9.8616 137.658 7.65848 139.526 7.04042L139.744 6.96895Z" fill="#A59466"/>
</g>
</svg>
