<svg width="23" height="20" viewBox="0 0 23 20" fill="none" xmlns="http://www.w3.org/2000/svg">
<path opacity="0.15" d="M7.3618 8.70554C6.79528 8.54244 6.22876 8.45968 5.67768 8.45968C4.82669 8.45968 4.11661 8.65415 3.56602 8.89229C4.09683 6.94904 5.37198 3.596 7.91215 3.2184C8.1474 3.18342 8.34018 3.01332 8.40436 2.78434L8.95954 0.798629C9.00635 0.6307 8.9786 0.450948 8.88281 0.305216C8.78702 0.159485 8.63309 0.0622496 8.46058 0.0386044C8.2731 0.013029 8.08201 0 7.89261 0C4.84358 0 1.82399 3.18245 0.549804 7.73922C-0.198157 10.4126 -0.417478 14.4318 1.42492 16.9616C2.4559 18.3772 3.96002 19.1331 5.89555 19.2086C5.90351 19.2088 5.91124 19.2091 5.9192 19.2091C8.30736 19.2091 10.4251 17.6007 11.0693 15.2982C11.4541 13.9217 11.2801 12.4782 10.579 11.2324C9.88532 10.0007 8.74287 9.10293 7.3618 8.70554Z" fill="#152430"/>
<path opacity="0.15" d="M22.3092 11.2327C21.6156 10.0007 20.4731 9.10293 19.092 8.70554C18.5255 8.54244 17.959 8.45968 17.4082 8.45968C16.5572 8.45968 15.8469 8.65415 15.2963 8.89229C15.8271 6.94904 17.1022 3.596 19.6426 3.2184C19.8779 3.18342 20.0704 3.01332 20.1349 2.78434L20.69 0.798629C20.7368 0.6307 20.7091 0.450948 20.6133 0.305216C20.5178 0.159485 20.3638 0.0622496 20.1911 0.0386044C20.0038 0.013029 19.8127 0 19.6231 0C16.5741 0 13.5545 3.18245 12.2801 7.73922C11.5323 10.4126 11.313 14.4318 13.1557 16.9621C14.1864 18.3774 15.6908 19.1336 17.626 19.2088C17.634 19.2091 17.6417 19.2093 17.6499 19.2093C20.0379 19.2093 22.1558 17.601 22.8 15.2985C23.1844 13.922 23.0102 12.4782 22.3092 11.2327Z" fill="#152430"/>
</svg>
