<svg width="27" height="21" viewBox="0 0 27 21" fill="none" xmlns="http://www.w3.org/2000/svg">
<path d="M19.1244 0H0V20.4545H5.32285V13.8H15.5225L20.1762 20.4545H26.1364L21.0048 13.7694C22.5986 13.5241 23.7459 12.9413 24.4472 12.0214C25.1483 11.1014 25.499 9.62935 25.499 7.66676V6.13341C25.499 4.96803 25.3717 4.04809 25.1485 3.34277C24.9252 2.63746 24.5427 2.02404 24.0009 1.47208C23.4272 0.950751 22.7898 0.582775 22.0248 0.337516C21.2598 0.122892 20.3035 0 19.1244 0ZM18.2638 9.29219H5.32285V4.50797H18.2638C18.9967 4.50797 19.5067 4.63051 19.7617 4.84531C20.0167 5.05994 20.1762 5.45855 20.1762 6.04132V7.75866C20.1762 8.3719 20.0167 8.77051 19.7617 8.98513C19.5067 9.19976 18.9968 9.29184 18.2638 9.29184V9.29219Z" fill="white"/>
</svg>
