<svg width="21" height="17" viewBox="0 0 21 17" fill="none" xmlns="http://www.w3.org/2000/svg">
<path d="M15.2995 0H0V16.3636H4.25828V11.04H12.418L16.1409 16.3636H20.9091L16.8038 11.0155C18.0789 10.8193 18.9967 10.3531 19.5578 9.6171C20.1186 8.88115 20.3992 7.70348 20.3992 6.13341V4.90672C20.3992 3.97442 20.2974 3.23847 20.1188 2.67422C19.9402 2.10996 19.6342 1.61924 19.2007 1.17766C18.7417 0.760601 18.2319 0.46622 17.6198 0.270013C17.0078 0.098314 16.2428 0 15.2995 0ZM14.611 7.43375H4.25828V3.60638H14.611C15.1973 3.60638 15.6054 3.70441 15.8094 3.87625C16.0134 4.04795 16.1409 4.36684 16.1409 4.83306V6.20693C16.1409 6.69752 16.0134 7.01641 15.8094 7.18811C15.6054 7.35981 15.1975 7.43347 14.611 7.43347V7.43375Z" fill="#191919"/>
</svg>
