<svg width="23" height="20" viewBox="0 0 23 20" fill="none" xmlns="http://www.w3.org/2000/svg">
<path fill-rule="evenodd" clip-rule="evenodd" d="M20.1694 0.136826C20.446 0.0156739 20.7488 -0.0261107 21.0462 0.015821C21.3437 0.0577526 21.6249 0.181868 21.8606 0.375248C22.0962 0.568629 22.2778 0.824205 22.3863 1.11537C22.4949 1.40654 22.5264 1.72266 22.4777 2.03083L19.9388 18.0553C19.6925 19.601 18.0625 20.4875 16.7001 19.7175C15.5605 19.0734 13.8679 18.0809 12.3454 17.0454C11.5842 16.5271 9.2523 14.8672 9.53889 13.6861C9.78517 12.6762 13.7033 8.88116 15.9423 6.6249C16.821 5.73847 16.4203 5.22711 15.3825 6.04248C12.8055 8.06695 8.66794 11.1456 7.29994 12.0122C6.09315 12.7763 5.46401 12.9068 4.71173 12.7763C3.33926 12.5387 2.06642 12.1706 1.02755 11.7222C-0.376268 11.1165 -0.30798 9.1083 1.02643 8.52356L20.1694 0.136826Z" fill="white"/>
</svg>
