<svg width="690" height="263" viewBox="0 0 690 263" fill="none" xmlns="http://www.w3.org/2000/svg">
<mask id="path-1-inside-1_96_6725" fill="white">
<path d="M670 0C681.046 0 690 8.95431 690 20V195C690 206.046 681.046 215 670 215H409.043L349.288 261.602C347.481 263.011 344.946 263.011 343.139 261.602L283.384 215H20C8.95431 215 0 206.046 0 195V20C0 8.95431 8.95431 2.0133e-07 20 0H670Z"/>
</mask>
<path d="M670 0C681.046 0 690 8.95431 690 20V195C690 206.046 681.046 215 670 215H409.043L349.288 261.602C347.481 263.011 344.946 263.011 343.139 261.602L283.384 215H20C8.95431 215 0 206.046 0 195V20C0 8.95431 8.95431 2.0133e-07 20 0H670Z" fill="white"/>
<path d="M670 215V217V215ZM409.043 215V213H408.355L407.813 213.423L409.043 215ZM349.288 261.602L348.058 260.024L349.288 261.602ZM343.139 261.602L344.369 260.024L343.139 261.602ZM283.384 215L284.614 213.423L284.071 213H283.384V215ZM20 0V-2V0ZM670 0V2C679.941 2 688 10.0589 688 20H690H692C692 7.84974 682.15 -2 670 -2V0ZM690 20H688V195H690H692V20H690ZM690 195H688C688 204.941 679.941 213 670 213V215V217C682.15 217 692 207.15 692 195H690ZM670 215V213H409.043V215V217H670V215ZM409.043 215L407.813 213.423L348.058 260.024L349.288 261.602L350.518 263.179L410.273 216.577L409.043 215ZM349.288 261.602L348.058 260.024C346.974 260.87 345.453 260.87 344.369 260.024L343.139 261.602L341.909 263.179C344.439 265.152 347.987 265.152 350.518 263.179L349.288 261.602ZM343.139 261.602L344.369 260.024L284.614 213.423L283.384 215L282.154 216.577L341.909 263.179L343.139 261.602ZM283.384 215V213H20V215V217H283.384V215ZM20 215V213C10.0589 213 2 204.941 2 195H0H-2C-2 207.15 7.84974 217 20 217V215ZM0 195H2V20H0H-2V195H0ZM0 20H2C2 10.0589 10.0589 2 20 2V0V-2C7.84974 -2 -2 7.84974 -2 20H0ZM20 0V2H670V0V-2H20V0Z" fill="#A59466" mask="url(#path-1-inside-1_96_6725)"/>
</svg>
