<svg width="690" height="284" viewBox="0 0 690 284" fill="none" xmlns="http://www.w3.org/2000/svg">
<mask id="path-1-inside-1_99_6699" fill="white">
<path d="M670 0C681.046 0 690 8.95431 690 20V217C690 228.046 681.046 237 670 237H405.835L347.474 282.595C345.665 284.008 343.126 284.008 341.317 282.595L282.956 237H20C8.95431 237 0 228.046 0 217V20C1.38524e-06 8.95431 8.95431 2.01331e-07 20 0H284.165L342.526 45.5947C344.335 47.0079 346.874 47.0079 348.683 45.5947L407.044 0H670Z"/>
</mask>
<path d="M670 0C681.046 0 690 8.95431 690 20V217C690 228.046 681.046 237 670 237H405.835L347.474 282.595C345.665 284.008 343.126 284.008 341.317 282.595L282.956 237H20C8.95431 237 0 228.046 0 217V20C1.38524e-06 8.95431 8.95431 2.01331e-07 20 0H284.165L342.526 45.5947C344.335 47.0079 346.874 47.0079 348.683 45.5947L407.044 0H670Z" fill="white"/>
<path d="M690 217L692 217V217H690ZM670 237L670 239H670L670 237ZM405.835 237V235H405.146L404.604 235.424L405.835 237ZM347.474 282.595L346.242 281.019L346.242 281.019L347.474 282.595ZM341.317 282.595L342.549 281.019L342.549 281.019L341.317 282.595ZM282.956 237L284.187 235.424L283.645 235H282.956V237ZM0 20L-2 20V20H0ZM20 0L20 -2L20 -2L20 0ZM284.165 0L285.396 -1.57605L284.854 -2H284.165V0ZM342.526 45.5947L343.758 44.0187L343.758 44.0187L342.526 45.5947ZM348.683 45.5947L347.451 44.0187L347.451 44.0187L348.683 45.5947ZM407.044 0V-2H406.355L405.813 -1.57605L407.044 0ZM670 0V2C679.941 2 688 10.0589 688 20H690H692C692 7.84974 682.15 -2 670 -2V0ZM690 20H688V217H690H692V20H690ZM690 217L688 217C688 226.941 679.941 235 670 235L670 237L670 239C682.15 239 692 229.15 692 217L690 217ZM670 237V235H405.835V237V239H670V237ZM405.835 237L404.604 235.424L346.242 281.019L347.474 282.595L348.705 284.171L407.066 238.576L405.835 237ZM347.474 282.595L346.242 281.019C345.157 281.867 343.634 281.867 342.549 281.019L341.317 282.595L340.086 284.171C342.619 286.149 346.173 286.149 348.705 284.171L347.474 282.595ZM341.317 282.595L342.549 281.019L284.187 235.424L282.956 237L281.725 238.576L340.086 284.171L341.317 282.595ZM282.956 237V235H20V237V239H282.956V237ZM20 237V235C10.0589 235 2 226.941 2 217H0H-2C-2 229.15 7.84974 239 20 239V237ZM0 217H2V20H0H-2V217H0ZM0 20L2 20C2 10.0589 10.0589 2 20 2L20 0L20 -2C7.84974 -2 -2 7.84974 -2 20L0 20ZM20 0V2H284.165V0V-2H20V0ZM284.165 0L282.934 1.57605L341.295 47.1708L342.526 45.5947L343.758 44.0187L285.396 -1.57605L284.165 0ZM342.526 45.5947L341.295 47.1708C343.827 49.1492 347.381 49.1492 349.914 47.1708L348.683 45.5947L347.451 44.0187C346.366 44.8666 344.843 44.8666 343.758 44.0187L342.526 45.5947ZM348.683 45.5947L349.914 47.1708L408.275 1.57605L407.044 0L405.813 -1.57605L347.451 44.0187L348.683 45.5947ZM407.044 0V2H670V0V-2H407.044V0Z" fill="#A59466" mask="url(#path-1-inside-1_99_6699)"/>
</svg>
