<svg width="690" height="215" viewBox="0 0 690 215" fill="none" xmlns="http://www.w3.org/2000/svg">
<mask id="path-1-inside-1_99_6709" fill="white">
<path d="M670 0C681.046 0 690 8.95431 690 20V195C690 206.046 681.046 215 670 215H20C8.95431 215 0 206.046 0 195V20C0 8.95431 8.95431 2.0133e-07 20 0H283.235L341.932 45.6152C343.737 47.0179 346.263 47.0179 348.068 45.6152L406.765 0H670Z"/>
</mask>
<path d="M670 0C681.046 0 690 8.95431 690 20V195C690 206.046 681.046 215 670 215H20C8.95431 215 0 206.046 0 195V20C0 8.95431 8.95431 2.0133e-07 20 0H283.235L341.932 45.6152C343.737 47.0179 346.263 47.0179 348.068 45.6152L406.765 0H670Z" fill="white"/>
<path d="M670 215L670 217H670L670 215ZM20 0L20 -2L20 -2L20 0ZM283.235 0L284.463 -1.57919L283.921 -2H283.235V0ZM341.932 45.6152L343.159 44.036L343.159 44.036L341.932 45.6152ZM348.068 45.6152L346.841 44.036L346.841 44.036L348.068 45.6152ZM406.765 0V-2H406.079L405.537 -1.57919L406.765 0ZM670 0V2C679.941 2 688 10.0589 688 20H690H692C692 7.84974 682.15 -2 670 -2V0ZM690 20H688V195H690H692V20H690ZM690 195H688C688 204.941 679.941 213 670 213L670 215L670 217C682.15 217 692 207.15 692 195H690ZM670 215V213H20V215V217H670V215ZM20 215V213C10.0589 213 2 204.941 2 195H0H-2C-2 207.15 7.84974 217 20 217V215ZM0 195H2V20H0H-2V195H0ZM0 20H2C2 10.0589 10.0589 2 20 2L20 0L20 -2C7.84974 -2 -2 7.84974 -2 20H0ZM20 0V2H283.235V0V-2H20V0ZM283.235 0L282.008 1.57919L340.704 47.1944L341.932 45.6152L343.159 44.036L284.463 -1.57919L283.235 0ZM341.932 45.6152L340.704 47.1944C343.231 49.1582 346.769 49.1582 349.296 47.1944L348.068 45.6152L346.841 44.036C345.758 44.8777 344.242 44.8777 343.159 44.036L341.932 45.6152ZM348.068 45.6152L349.296 47.1944L407.992 1.57919L406.765 0L405.537 -1.57919L346.841 44.036L348.068 45.6152ZM406.765 0V2H670V0V-2H406.765V0Z" fill="#A59466" mask="url(#path-1-inside-1_99_6709)"/>
</svg>
