<svg width="29" height="17" viewBox="0 0 29 17" fill="none" xmlns="http://www.w3.org/2000/svg">
<path d="M28.7096 1.17363C28.9391 1.80634 28.1907 3.2596 26.4643 5.53342C26.2248 5.84977 25.9005 6.26993 25.4914 6.7939C24.713 7.78252 24.264 8.43006 24.1442 8.73653C23.9746 9.14186 24.0444 9.54225 24.3538 9.9377C24.5234 10.1453 24.9276 10.5506 25.5662 11.1537H25.5812L25.5962 11.1685L25.6111 11.1834L25.6411 11.213C27.0481 12.5081 28.0011 13.6005 28.5 14.4903C28.53 14.5397 28.5624 14.6015 28.5973 14.6756C28.6323 14.7498 28.6672 14.8808 28.7021 15.0686C28.737 15.2564 28.7345 15.4245 28.6946 15.5728C28.6547 15.7211 28.53 15.857 28.3204 15.9806C28.1109 16.1042 27.8165 16.166 27.4373 16.166L23.6053 16.2253C23.3658 16.2747 23.0864 16.25 22.7671 16.1511C22.4478 16.0523 22.1883 15.9435 21.9887 15.8249L21.6894 15.6469C21.39 15.4393 21.0407 15.123 20.6416 14.6979C20.2424 14.2728 19.9006 13.8897 19.6162 13.5486C19.3318 13.2075 19.0275 12.9208 18.7032 12.6885C18.3788 12.4562 18.0969 12.3796 17.8574 12.4587C17.8275 12.4685 17.7876 12.4858 17.7377 12.5106C17.6878 12.5353 17.603 12.607 17.4832 12.7256C17.3635 12.8442 17.2562 12.99 17.1614 13.1631C17.0666 13.3361 16.9818 13.5931 16.9069 13.9342C16.8321 14.2752 16.7997 14.6583 16.8096 15.0834C16.8096 15.2317 16.7922 15.3677 16.7572 15.4912C16.7223 15.6148 16.6849 15.7063 16.645 15.7656L16.5851 15.8397C16.4055 16.0276 16.141 16.1363 15.7918 16.166H14.0704C13.3619 16.2055 12.6334 16.124 11.885 15.9213C11.1366 15.7186 10.4805 15.4566 9.91664 15.1353C9.35282 14.814 8.83891 14.4878 8.37488 14.1566C7.91086 13.8254 7.5591 13.5412 7.3196 13.3039L6.94539 12.948C6.8456 12.8492 6.70839 12.7009 6.53375 12.5032C6.35912 12.3054 6.00237 11.8556 5.46351 11.1537C4.92464 10.4518 4.39575 9.70537 3.87684 8.91448C3.35794 8.12359 2.74672 7.0806 2.0432 5.78551C1.33968 4.49043 0.688551 3.14591 0.0898111 1.75197C0.029937 1.59379 0 1.46033 0 1.35158C0 1.24283 0.0149685 1.16374 0.0449055 1.11431L0.10478 1.02534C0.254465 0.837499 0.538866 0.74358 0.957985 0.74358L5.05936 0.713922C5.1791 0.733694 5.29386 0.765824 5.40363 0.810311C5.5134 0.854799 5.59323 0.896815 5.64313 0.93636L5.71797 0.980847C5.87764 1.0896 5.99738 1.24777 6.07722 1.45538C6.27679 1.94969 6.50631 2.4613 6.76577 2.99021C7.02522 3.51911 7.22979 3.92198 7.37948 4.19879L7.61897 4.62883C7.90836 5.222 8.18777 5.73608 8.45721 6.17107C8.72664 6.60606 8.96863 6.94466 9.18318 7.18688C9.39773 7.42909 9.60479 7.61939 9.80437 7.7578C10.004 7.89621 10.1736 7.96541 10.3133 7.96541C10.453 7.96541 10.5877 7.94069 10.7175 7.89126C10.7374 7.88138 10.7624 7.85666 10.7923 7.81712C10.8222 7.77757 10.8821 7.66883 10.9719 7.49087C11.0617 7.31292 11.1291 7.0806 11.174 6.7939C11.2189 6.5072 11.2663 6.10681 11.3162 5.59273C11.3661 5.07865 11.3661 4.46077 11.3162 3.73908C11.2962 3.34364 11.2513 2.98279 11.1815 2.65655C11.1116 2.33031 11.0418 2.10292 10.9719 1.9744L10.8821 1.79645C10.6326 1.46033 10.2085 1.24777 9.60978 1.1588C9.48006 1.13903 9.505 1.02039 9.68463 0.802897C9.85427 0.615061 10.0439 0.466768 10.2534 0.358021C10.7823 0.100981 11.9748 -0.0176525 13.8309 0.00211906C14.6492 0.0120049 15.3228 0.0762653 15.8517 0.194899C16.0512 0.244329 16.2184 0.311061 16.3531 0.395094C16.4878 0.479126 16.5901 0.597759 16.66 0.750995C16.7298 0.90423 16.7822 1.06241 16.8171 1.22553C16.852 1.38865 16.8695 1.61356 16.8695 1.90026C16.8695 2.18696 16.8645 2.45883 16.8545 2.71587C16.8446 2.97291 16.8321 3.32139 16.8171 3.76133C16.8022 4.20126 16.7947 4.60906 16.7947 4.98474C16.7947 5.09348 16.7897 5.30109 16.7797 5.60756C16.7697 5.91403 16.7672 6.1513 16.7722 6.31937C16.7772 6.48743 16.7947 6.68762 16.8246 6.91995C16.8545 7.15227 16.9119 7.34505 16.9967 7.49829C17.0816 7.65152 17.1938 7.77263 17.3335 7.8616C17.4134 7.88138 17.4982 7.90115 17.588 7.92092C17.6778 7.94069 17.8075 7.88632 17.9772 7.7578C18.1468 7.62928 18.3364 7.45874 18.546 7.24619C18.7555 7.03364 19.015 6.70245 19.3243 6.25263C19.6337 5.80281 19.973 5.27143 20.3422 4.65849C20.9409 3.63033 21.4748 2.51814 21.9438 1.32192C21.9838 1.22306 22.0336 1.13655 22.0935 1.06241C22.1534 0.988262 22.2083 0.93636 22.2582 0.906702L22.318 0.862214C22.338 0.852328 22.363 0.839971 22.3929 0.825141C22.4228 0.810311 22.4877 0.795483 22.5875 0.780653C22.6873 0.765824 22.7871 0.763352 22.8869 0.773239L27.1978 0.74358C27.587 0.69415 27.9063 0.706508 28.1558 0.780653C28.4052 0.854799 28.5599 0.93636 28.6198 1.02534L28.7096 1.17363Z" fill="white"/>
</svg>
