<svg width="23" height="13" viewBox="0 0 23 13" fill="none" xmlns="http://www.w3.org/2000/svg">
<path d="M22.9677 0.938902C23.1513 1.44507 22.5526 2.60768 21.1715 4.42673C20.9799 4.67982 20.7204 5.01595 20.3931 5.43512C19.7704 6.22601 19.4112 6.74405 19.3154 6.98922C19.1796 7.31349 19.2355 7.6338 19.483 7.95016C19.6187 8.11624 19.942 8.44051 20.453 8.92295H20.4649L20.4769 8.93482L20.4889 8.94668L20.5128 8.97041C21.6385 10.0065 22.4009 10.8804 22.8 11.5922C22.824 11.6318 22.8499 11.6812 22.8779 11.7405C22.9058 11.7998 22.9338 11.9046 22.9617 12.0549C22.9896 12.2052 22.9876 12.3396 22.9557 12.4582C22.9238 12.5769 22.824 12.6856 22.6563 12.7845C22.4887 12.8833 22.2532 12.9328 21.9498 12.9328L18.8843 12.9802C18.6927 13.0198 18.4691 13 18.2137 12.9209C17.9582 12.8418 17.7507 12.7548 17.591 12.6599L17.3515 12.5176C17.112 12.3515 16.8326 12.0984 16.5133 11.7583C16.1939 11.4182 15.9205 11.1117 15.693 10.8389C15.4655 10.566 15.222 10.3367 14.9625 10.1508C14.7031 9.96495 14.4775 9.90366 14.2859 9.96693C14.262 9.97484 14.2301 9.98868 14.1901 10.0085C14.1502 10.0282 14.0824 10.0856 13.9866 10.1805C13.8908 10.2754 13.805 10.392 13.7291 10.5304C13.6533 10.6688 13.5854 10.8745 13.5255 11.1473C13.4657 11.4202 13.4397 11.7267 13.4477 12.0667C13.4477 12.1854 13.4337 12.2941 13.4058 12.393C13.3779 12.4919 13.3479 12.565 13.316 12.6125L13.2681 12.6718C13.1244 12.822 12.9128 12.909 12.6334 12.9328H11.2563C10.6895 12.9644 10.1067 12.8992 9.508 12.737C8.90926 12.5749 8.38436 12.3653 7.93331 12.1083C7.48226 11.8512 7.07112 11.5902 6.6999 11.3253C6.32869 11.0603 6.04728 10.833 5.85568 10.6431L5.55631 10.3584C5.47648 10.2793 5.36671 10.1607 5.227 10.0025C5.0873 9.84434 4.8019 9.48449 4.3708 8.92295C3.93971 8.36142 3.5166 7.7643 3.10148 7.13158C2.68635 6.49887 2.19738 5.66448 1.63456 4.62841C1.07175 3.59234 0.550841 2.51673 0.0718488 1.40157C0.0239496 1.27503 0 1.16826 0 1.08126C0 0.994265 0.0119748 0.930993 0.0359244 0.891448L0.0838237 0.820269C0.203572 0.669999 0.431093 0.594865 0.766388 0.594865L4.04748 0.571137C4.14328 0.586956 4.23509 0.612659 4.32291 0.64825C4.41072 0.68384 4.47459 0.717453 4.5145 0.749088L4.57438 0.784678C4.70211 0.871676 4.79791 0.998219 4.86177 1.16431C5.02144 1.55975 5.20505 1.96904 5.41261 2.39217C5.62018 2.81529 5.78383 3.13758 5.90358 3.35903L6.09518 3.70307C6.32669 4.1776 6.55022 4.58887 6.76577 4.93686C6.98131 5.28485 7.17491 5.55573 7.34654 5.7495C7.51818 5.94327 7.68383 6.09552 7.8435 6.20624C8.00316 6.31697 8.13888 6.37233 8.25064 6.37233C8.36241 6.37233 8.47018 6.35256 8.57396 6.31301C8.58993 6.3051 8.60989 6.28533 8.63384 6.25369C8.65779 6.22206 8.70568 6.13506 8.77753 5.9927C8.84938 5.85034 8.90327 5.66448 8.93919 5.43512C8.97512 5.20576 9.01304 4.88545 9.05295 4.47419C9.09287 4.06292 9.09287 3.56862 9.05295 2.99127C9.03699 2.67491 9.00106 2.38623 8.94518 2.12524C8.8893 1.86425 8.83342 1.68234 8.77753 1.57952L8.70568 1.43716C8.5061 1.16826 8.16682 0.998219 7.68783 0.927038C7.58404 0.911221 7.604 0.816315 7.7477 0.642318C7.88341 0.492048 8.0351 0.373415 8.20274 0.286417C8.62585 0.0807848 9.57985 -0.014122 11.0647 0.00169563C11.7193 0.00960445 12.2582 0.0610123 12.6813 0.15592C12.841 0.195464 12.9747 0.24885 13.0825 0.316075C13.1902 0.383301 13.2721 0.478209 13.328 0.600797C13.3838 0.723385 13.4258 0.849926 13.4537 0.980424C13.4816 1.11092 13.4956 1.29085 13.4956 1.52021C13.4956 1.74957 13.4916 1.96706 13.4836 2.17269C13.4756 2.37832 13.4657 2.65711 13.4537 3.00906C13.4417 3.36101 13.4357 3.68725 13.4357 3.98779C13.4357 4.07479 13.4317 4.24087 13.4238 4.48605C13.4158 4.73123 13.4138 4.92104 13.4178 5.05549C13.4218 5.18994 13.4357 5.3501 13.4597 5.53596C13.4836 5.72182 13.5295 5.87604 13.5974 5.99863C13.6653 6.12122 13.7551 6.2181 13.8668 6.28928C13.9307 6.3051 13.9985 6.32092 14.0704 6.33674C14.1422 6.35256 14.246 6.30906 14.3817 6.20624C14.5175 6.10342 14.6691 5.967 14.8368 5.79695C15.0044 5.62691 15.212 5.36196 15.4595 5.00211C15.707 4.64225 15.9784 4.21715 16.2738 3.7268C16.7528 2.90427 17.1799 2.01451 17.5551 1.05754C17.587 0.978446 17.6269 0.909244 17.6748 0.849927C17.7227 0.79061 17.7666 0.749088 17.8065 0.725362L17.8544 0.689772C17.8704 0.681863 17.8904 0.671976 17.9143 0.660113C17.9383 0.64825 17.9902 0.636387 18.07 0.624523C18.1498 0.612659 18.2296 0.610682 18.3095 0.618591L21.7582 0.594865C22.0696 0.55532 22.325 0.565207 22.5246 0.624523C22.7242 0.68384 22.8479 0.749088 22.8958 0.820269L22.9677 0.938902Z" fill="#191919"/>
</svg>
