<svg width="23" height="23" viewBox="0 0 23 23" fill="none" xmlns="http://www.w3.org/2000/svg">
<path fill-rule="evenodd" clip-rule="evenodd" d="M11.25 0C5.03663 0 0 5.03662 0 11.25C0 13.3762 0.590625 15.3675 1.61775 17.064L0.61425 20.475C0.556633 20.6708 0.552841 20.8786 0.603275 21.0764C0.653708 21.2742 0.756504 21.4548 0.900854 21.5991C1.0452 21.7435 1.22578 21.8463 1.42359 21.8967C1.62141 21.9472 1.82916 21.9434 2.025 21.8857L5.436 20.8822C7.18958 21.9431 9.20052 22.5026 11.25 22.5C17.4634 22.5 22.5 17.4634 22.5 11.25C22.5 5.03662 17.4634 0 11.25 0ZM8.70525 13.7959C10.9811 16.0706 13.1535 16.371 13.9207 16.3991C15.0874 16.4419 16.2236 15.5509 16.6657 14.517C16.7211 14.3883 16.7411 14.2471 16.7237 14.1081C16.7063 13.9691 16.6521 13.8372 16.5667 13.7261C15.9502 12.9386 15.1166 12.3727 14.3021 11.8102C14.1322 11.6924 13.9231 11.645 13.7189 11.6782C13.5148 11.7114 13.3314 11.8224 13.2075 11.988L12.5325 13.0174C12.4968 13.0725 12.4415 13.112 12.3778 13.1279C12.3141 13.1438 12.2467 13.1348 12.1894 13.1029C11.7315 12.8407 11.0644 12.3952 10.5851 11.916C10.1059 11.4367 9.68738 10.8 9.45225 10.3714C9.42381 10.3168 9.41577 10.2538 9.42958 10.1938C9.4434 10.1338 9.47816 10.0807 9.52763 10.044L10.5671 9.27225C10.7159 9.14354 10.812 8.96446 10.8369 8.76931C10.8618 8.57417 10.8138 8.3767 10.7021 8.21475C10.1981 7.47675 9.61088 6.5385 8.75925 5.91637C8.64911 5.83724 8.5204 5.78789 8.38558 5.77311C8.25077 5.75832 8.11442 5.77861 7.98975 5.832C6.95475 6.27525 6.05925 7.4115 6.102 8.58037C6.13012 9.34762 6.4305 11.52 8.70525 13.7959Z" fill="white"/>
</svg>
