<svg width="18" height="18" viewBox="0 0 18 18" fill="none" xmlns="http://www.w3.org/2000/svg">
<path fill-rule="evenodd" clip-rule="evenodd" d="M9 0C4.0293 0 0 4.0293 0 9C0 10.701 0.4725 12.294 1.2942 13.6512L0.4914 16.38C0.445306 16.5367 0.442273 16.7029 0.48262 16.8611C0.522967 17.0194 0.605203 17.1638 0.720683 17.2793C0.836164 17.3948 0.980623 17.477 1.13887 17.5174C1.29713 17.5577 1.46333 17.5547 1.62 17.5086L4.3488 16.7058C5.75166 17.5544 7.36042 18.0021 9 18C13.9707 18 18 13.9707 18 9C18 4.0293 13.9707 0 9 0ZM6.9642 11.0367C8.7849 12.8565 10.5228 13.0968 11.1366 13.1193C12.0699 13.1535 12.9789 12.4407 13.3326 11.6136C13.3769 11.5106 13.3929 11.3977 13.379 11.2865C13.365 11.1753 13.3217 11.0698 13.2534 10.9809C12.7602 10.3509 12.0933 9.8982 11.4417 9.4482C11.3057 9.35391 11.1385 9.31604 10.9752 9.34256C10.8118 9.36908 10.6652 9.45793 10.566 9.5904L10.026 10.4139C9.99746 10.458 9.95323 10.4896 9.90226 10.5023C9.85129 10.515 9.79739 10.5079 9.7515 10.4823C9.3852 10.2726 8.8515 9.9162 8.4681 9.5328C8.0847 9.1494 7.7499 8.64 7.5618 8.2971C7.53904 8.25341 7.53262 8.20304 7.54367 8.15503C7.55472 8.10703 7.58253 8.06454 7.6221 8.0352L8.4537 7.4178C8.57272 7.31483 8.64956 7.17157 8.66949 7.01545C8.68942 6.85934 8.65104 6.70136 8.5617 6.5718C8.1585 5.9814 7.6887 5.2308 7.0074 4.7331C6.91929 4.66979 6.81632 4.63031 6.70847 4.61849C6.60062 4.60666 6.49154 4.62289 6.3918 4.6656C5.5638 5.0202 4.8474 5.9292 4.8816 6.8643C4.9041 7.4781 5.1444 9.216 6.9642 11.0367Z" fill="#191919"/>
</svg>
