<svg width="23" height="18" viewBox="0 0 23 18" fill="none" xmlns="http://www.w3.org/2000/svg">
<path fill-rule="evenodd" clip-rule="evenodd" d="M11.25 0C12.2119 0 13.1985 0.0240626 14.1547 0.0634376L15.2843 0.115937L16.3654 0.178281L17.3779 0.245L18.3026 0.315C19.3063 0.389256 20.2509 0.805475 20.9699 1.49035C21.689 2.17522 22.1364 3.08481 22.2334 4.05891L22.2784 4.52375L22.3628 5.51906C22.4415 6.55047 22.5 7.67484 22.5 8.75C22.5 9.82516 22.4415 10.9495 22.3628 11.9809L22.2784 12.9763L22.2334 13.4411C22.1364 14.4154 21.6888 15.3251 20.9695 16.01C20.2502 16.6949 19.3054 17.111 18.3015 17.185L17.379 17.2539L16.3665 17.3217L15.2843 17.3841L14.1547 17.4366C13.1871 17.4773 12.2186 17.4985 11.25 17.5C10.2814 17.4985 9.31294 17.4773 8.34525 17.4366L7.21575 17.3841L6.13462 17.3217L5.12213 17.2539L4.19737 17.185C3.19367 17.1107 2.2491 16.6945 1.53005 16.0097C0.811 15.3248 0.36359 14.4152 0.266625 13.4411L0.221625 12.9763L0.13725 11.9809C0.0515618 10.9059 0.0057821 9.82823 0 8.75C0 7.67484 0.0585 6.55047 0.13725 5.51906L0.221625 4.52375L0.266625 4.05891C0.363552 3.08498 0.810801 2.17553 1.52962 1.49068C2.24844 0.80583 3.19274 0.389502 4.19625 0.315L5.11987 0.245L6.13238 0.178281L7.21463 0.115937L8.34412 0.0634376C9.31219 0.0226704 10.281 0.00151985 11.25 0ZM9 6.09766V11.4023C9 11.9077 9.5625 12.2227 10.0125 11.9711L14.7375 9.31875C14.8403 9.26121 14.9257 9.17834 14.9851 9.07849C15.0445 8.97864 15.0758 8.86534 15.0758 8.75C15.0758 8.63466 15.0445 8.52136 14.9851 8.42151C14.9257 8.32166 14.8403 8.23879 14.7375 8.18125L10.0125 5.53C9.90985 5.47238 9.79342 5.44206 9.67489 5.44208C9.55637 5.4421 9.43994 5.47246 9.33731 5.53011C9.23469 5.58775 9.14948 5.67066 9.09027 5.77048C9.03106 5.8703 8.99992 5.98352 9 6.09875V6.09766Z" fill="white"/>
</svg>
